<svg t="1588564344563" class="icon" viewBox="0 0 1024 1024" version="1.1" xmlns="http://www.w3.org/2000/svg" p-id="8704" width="200" height="200"><path d="M353.120968 825.440735c-11.081383 0-20.107967-10.033517-20.107967-22.273283 0-12.611226 9.026584-22.664186 20.107967-22.664186l474.55825 0c11.103896 0 20.107967 10.05296 20.107967 22.664186 0 12.239765-9.005095 22.273283-20.107967 22.273283L353.120968 825.440735 353.120968 825.440735zM354.082876 198.418049c-11.562337 0-21.069875 8.80862-21.069875 19.890003l0 0.644683 0 138.803299c0 11.070126 9.507538 19.868513 21.069875 19.868513l0.524956 0 471.586568 0 0.611937 0c11.583826 0 20.982894-8.797363 20.982894-19.868513L847.789231 218.952734l0-0.644683c0-11.081383-9.399067-19.890003-20.982894-19.890003L354.082876 198.418049 354.082876 198.418049zM377.775484 332.784292l0-89.525989 425.249217 0 0 89.525989L377.775484 332.784292 377.775484 332.784292zM221.104235 332.784292 109.196493 332.784292l0 492.394477c0 85.809341 111.907743 90.61888 111.907743 0L221.104235 422.310282 221.104235 332.784292zM176.341752 937.084465c-29.04757 0-61.265342-11.669784-80.542384-31.18935l-0.174985 0c-19.255553-19.497053-31.320333-46.206368-31.320333-75.646887l0.130983-497.464959c0-19.179828 25.747407-44.763506 44.763506-44.763506l111.907743 0L221.106282 131.35056c0-19.179828 25.835412-44.763506 44.763506-44.763506l0 0 649.064702 0c19.016099 0 44.763506 25.583678 44.763506 44.763506l0 0 0 693.828208c0 29.440519-11.889795 61.220317-31.103392 80.71737l-0.152473 0-0.524956 0.699941c-19.190061 18.819624-45.63741 30.816866-74.596975 30.816866L176.341752 937.084465zM914.932444 131.35056 265.867742 131.35056l0 760.973468 581.920466 0c59.495022 0 67.144236-71.975265 67.144236-67.144236L914.932444 131.35056zM600.629061 467.335754l0.524956 0L826.630329 467.335754c11.67183 0 21.157879 9.803273 21.157879 21.354354l0 0.699941 0 113.110127c0 11.550057-9.486048 21.015639-21.157879 21.015639l-0.611937 0L600.629061 623.515816c-11.650341 0-21.135366-9.465582-21.135366-21.015639l0-0.699941L579.493695 488.690108C579.493695 477.138004 588.97872 467.335754 600.629061 467.335754L600.629061 467.335754zM805.516452 510.043439l-183.64253 0 0 71.090105 183.64253 0L805.516452 510.043439 805.516452 510.043439zM352.116081 511.901763c-10.535961 0-19.10308-10.032494-19.10308-22.665209 0-12.239765 8.567119-22.282492 19.10308-22.282492l185.828312 0c10.534937 0 19.080567 10.042727 19.080567 22.282492 0 12.633738-8.546653 22.665209-19.080567 22.665209L352.116081 511.901763 352.116081 511.901763zM352.116081 623.503537c-10.535961 0-19.10308-9.869788-19.10308-21.911032 0-12.415774 8.567119-22.282492 19.10308-22.282492l185.828312 0c10.534937 0 19.080567 9.867742 19.080567 22.282492 0 12.042267-8.546653 21.911032-19.080567 21.911032L352.116081 623.503537 352.116081 623.503537zM353.120968 735.455281c-11.081383 0-20.107967-10.228969-20.107967-22.25077 0-12.426007 9.026584-22.273283 20.107967-22.273283l474.55825 0c11.103896 0 20.107967 9.847276 20.107967 22.273283 0 12.021801-9.005095 22.25077-20.107967 22.25077L353.120968 735.455281 353.120968 735.455281z" p-id="8705"></path></svg>