<svg t="1588568915552" class="icon" viewBox="0 0 1024 1024" version="1.1" xmlns="http://www.w3.org/2000/svg" p-id="5207" width="200" height="200"><path d="M435.2 435.2H332.8v102.4h102.4V435.2z m-256 409.6h102.4V742.4H179.2v102.4zM102.4 384L512 102.4 921.6 384v204.8h51.2V358.4L512 51.2 51.2 358.4v614.4h537.6v-51.2H102.4V384z m230.4 460.8h102.4V742.4H332.8v102.4z m102.4-256H332.8v102.4h102.4V588.8z m-153.6 0H179.2v102.4h102.4V588.8zM486.4 384h102.4V281.6H486.4V384z m0 153.6h102.4V435.2H486.4v102.4z m332.8 128L665.6 819.2l153.6 153.6V870.4h153.6V768H819.2V665.6zM486.4 844.8h102.4V742.4H486.4v102.4z m0-153.6h102.4V588.8H486.4v102.4z m-204.8-256H179.2v102.4h102.4V435.2z" p-id="5208"></path></svg>