<svg t="1588570365077" class="icon" viewBox="0 0 1024 1024" version="1.1" xmlns="http://www.w3.org/2000/svg" p-id="15178" width="200" height="200"><path d="M783.36 634.88C887.98208 634.88 972.8 719.69792 972.8 824.32S887.98208 1013.76 783.36 1013.76 593.92 928.94208 593.92 824.32 678.73792 634.88 783.36 634.88zM525.312 15.70816l1.4336 1.20832 463.40096 422.4512a25.6 25.6 0 0 1-33.09568 39.02464l-1.40288-1.18784-446.1568-406.7328-384.01024 350.06464v437.11488a76.8 76.8 0 0 0 74.32192 76.75904l2.48832 0.04096h307.2a25.6 25.6 0 0 1 1.67936 51.1488l-1.67936 0.0512h-307.2c-69.632 0-126.28992-55.6032-127.95904-124.84608l-0.04096-3.15392-0.01024-390.43072-10.9568 9.984a25.6 25.6 0 0 1-34.88768-0.3584l-1.28-1.31072a25.6 25.6 0 0 1 0.36864-34.88768l1.31072-1.28L492.2368 16.91648a25.6 25.6 0 0 1 33.05472-1.20832zM783.36 686.08C707.01056 686.08 645.12 747.97056 645.12 824.32S707.01056 962.56 783.36 962.56 921.6 900.66944 921.6 824.32 859.70944 686.08 783.36 686.08z m0 56.32a81.92 81.92 0 1 1 0 163.84 81.92 81.92 0 0 1 0-163.84zM325.12 545.3312h363.52c22.25152 0 33.65888 26.24512 19.23072 42.496l-1.1264 1.20832-112.64 112.64a25.6 25.6 0 0 1-37.45792-34.8672l1.24928-1.3312 68.93568-68.94592H325.12a25.6 25.6 0 0 1-1.6896-51.1488l1.6896-0.0512h363.52z m130.79552-187.06432a25.6 25.6 0 0 1 1.23904 34.8672l-1.23904 1.3312-68.94592 68.94592h301.7216a25.6 25.6 0 0 1 1.67936 51.1488l-1.67936 0.0512h-363.52c-22.25152 0-33.66912-26.24512-19.23072-42.496l1.1264-1.20832 112.64-112.64a25.6 25.6 0 0 1 36.20864 0z" p-id="15179"></path></svg>