<svg t="1588568646763" class="icon" viewBox="0 0 1025 1024" version="1.1" xmlns="http://www.w3.org/2000/svg" p-id="8988" width="200" height="200"><path d="M1024.853333 747.618921L831.95793 938.723518l-64.383744-63.616256 107.87475-106.595603H597.78871v-85.276482h277.660226L767.574186 576.554297l64.383744-63.530979 192.895403 190.763491-22.257162 22.086609z m-62.337108-235.87475L534.428283 85.958694h-50.398401l-341.105929 341.10593H171.406298v596.935376H86.129816V483.858761l-29.676216 29.676216-56.453031-56.453032L427.235745 29.761492V0.682212h29.079281l0.682211-0.682212 0.682212 0.682212H597.78871v25.582945l426.382411 423.99467zM341.959263 512.341106H256.68278V427.064624h85.276483v85.276482z m0 255.829447H256.68278V682.894071h85.276483v85.276482z m0 255.829447H256.68278v-85.276482h85.276483v85.276482z m170.552964-511.658894H427.235745V427.064624h85.276482v85.276482z m0 255.829447H427.235745V682.894071h85.276482v85.276482z m0 255.829447H427.235745v-85.276482h85.276482v85.276482z" p-id="8989"></path></svg>