<svg t="1588564202188" class="icon" viewBox="0 0 1024 1024" version="1.1" xmlns="http://www.w3.org/2000/svg" p-id="10251" width="200" height="200"><path d="M795.837 64C829.617 64 857 91.384 857 125.163V450h39c35.346 0 64 28.654 64 64v238c0 35.346-28.654 64-64 64H768v82c0 35.346-28.654 64-64 64H320c-35.346 0-64-28.654-64-64v-82H128c-35.346 0-64-28.654-64-64V514c0-35.346 28.654-64 64-64h39V125.163C167 91.383 194.384 64 228.163 64h567.674zM696 712H328v176h368V712z m192-190H136v222h120v-40c0-35.346 28.654-64 64-64h384c35.346 0 64 28.654 64 64v40h120V522z m-99.809-389.191H235.81L235.808 450h552.383V132.809z" p-id="10252"></path><path d="M680 371c15.464 0 28 12.536 28 28s-12.536 28-28 28H344c-15.464 0-28-12.536-28-28s12.536-28 28-28h336z m0-143c15.464 0 28 12.536 28 28s-12.536 28-28 28H344c-15.464 0-28-12.536-28-28s12.536-28 28-28h336z" p-id="10253"></path><path d="M199 580m-32 0a32 32 0 1 0 64 0 32 32 0 1 0-64 0Z" p-id="10254"></path></svg>