<svg t="1588569988394" class="icon" viewBox="0 0 1024 1024" version="1.1" xmlns="http://www.w3.org/2000/svg" p-id="14437" width="200" height="200"><path d="M512.893277 1021.276596h-10.000341c-34.042553-6.808511-61.276596-13.617021-95.319149-27.234043s-68.085106-27.234043-102.127659-47.659574-74.893617-40.851064-108.936171-68.085107-68.085106-54.468085-95.319148-81.702127-47.659574-54.468085-68.085107-88.510639-27.234043-68.085106-27.234042-102.127659V81.702128l68.085106-6.808511 435.744681-74.893617 510.638298 88.510638V599.148936c0 34.042553-6.808511 68.085106-27.234043 102.12766s-40.851064 61.276596-68.085106 88.510638-61.276596 54.468085-95.319149 81.702128-68.085106 47.659574-102.12766 68.085106-67.649362 29.211234-102.127659 47.659575c-22.985532 12.298894-60.497702 23.644596-112.552851 34.042553zM52.169532 130.532766v471.611915c0 21.117277 7.037277 49.27183 21.117277 70.389106 14.08 28.16 35.197277 56.314553 63.346382 77.426383 28.16 28.16 50.007149 49.277277 85.204426 77.43183 35.19183 28.16 73.570043 49.467915 108.761872 70.590638 35.197277 21.11183 70.503489 33.334468 98.658043 47.409022 28.16 14.074553 55.481191 19.172766 83.635745 26.204595 44.8-11.667064 76.582128-22.195745 95.351829-31.580595 28.16-14.08 63.35183-28.16 98.549107-49.27183 35.19183-21.117277 70.389106-42.234553 98.543659-63.35183 35.197277-21.117277 63.346383-49.27183 84.469107-77.43183 21.117277-21.11183 42.234553-49.27183 56.309106-77.426383 14.08-21.117277 21.117277-49.27183 21.117277-70.389106V130.532766l-457.531915-77.426383-457.531915 77.426383z m205.617021 230.318298h74.893617v-122.553192h40.851064v122.553192h61.276596v40.851064h-61.276596V435.744681c27.234043 27.234043 47.659574 54.468085 74.893617 88.510638l-20.425532 34.042553c-20.425532-34.042553-40.851064-61.276596-54.468085-81.702127v320h-40.851064v-299.574468c-20.425532 61.276596-40.851064 115.744681-74.893617 163.404255l-20.425532-47.659575c40.851064-61.276596 74.893617-136.170213 95.319149-211.063829h-74.893617v-40.851064z m272.340426 54.468085c-27.234043 27.234043-47.659574 47.659574-74.893617 68.085106l-27.234043-40.851064c74.893617-54.468085 129.361702-122.553191 170.212766-204.255319h40.851064c34.042553 74.893617 88.510638 142.978723 170.212766 204.255319l-27.234043 34.042554c-27.234043-20.425532-47.659574-40.851064-68.085106-61.276596v34.042553h-183.829787v-34.042553z m183.829787 0c-40.851064-40.851064-68.085106-81.702128-88.510638-136.170213-27.234043 54.468085-54.468085 95.319149-88.510639 136.170213h177.021277zM448.424851 735.319149h211.06383c27.234043-68.085106 47.659574-142.978723 68.085106-238.297872l40.851064 13.617021c-20.425532 88.510638-40.851064 163.404255-68.085106 231.489362h95.319149v40.851063h-347.234043V735.319149z m68.085106-224.680851c20.425532 54.468085 34.042553 108.93617 47.659575 177.021276l-40.851064 13.617022c-13.617021-61.276596-27.234043-115.744681-47.659574-177.021277l40.851063-13.617021z m88.510639-20.425532c13.617021 47.659574 27.234043 108.93617 40.851064 170.212766l-40.851064 13.617021c-6.808511-61.276596-20.425532-115.744681-34.042553-170.212766l34.042553-13.617021z" p-id="14438"></path></svg>