<svg t="1588569821165" class="icon" viewBox="0 0 1030 1024" version="1.1" xmlns="http://www.w3.org/2000/svg" p-id="13667" width="200" height="200"><path d="M1017.6 224L883.2 12.8c0-6.4-12.8-12.8-25.6-12.8H166.4c-6.4 0-19.2 6.4-25.6 12.8L6.4 217.6C0 224 0 236.8 0 243.2v729.6c0 32 19.2 51.2 51.2 51.2h928c25.6 0 51.2-19.2 51.2-51.2V256v-6.4c-6.4-6.4-6.4-19.2-12.8-25.6z m-832-160h659.2l89.6 140.8H89.6l96-140.8zM960 960H64V268.8h896V960z" p-id="13668"></path><path d="M646.4 768H249.6c-19.2 0-32 12.8-32 32s12.8 32 32 32h396.8c96 0 172.8-76.8 172.8-172.8s-76.8-172.8-172.8-172.8H332.8l57.6-57.6c12.8-12.8 12.8-32 0-44.8-12.8-12.8-32-12.8-44.8 0L230.4 492.8c-6.4 6.4-6.4 6.4-6.4 12.8v25.6c0 6.4 6.4 6.4 6.4 12.8l115.2 115.2c6.4 6.4 12.8 6.4 25.6 6.4 6.4 0 19.2 0 25.6-6.4 12.8-12.8 12.8-32 0-44.8l-64-64h320c57.6 0 108.8 51.2 108.8 108.8S710.4 768 646.4 768z" p-id="13669"></path></svg>