<svg t="1588571152075" class="icon" viewBox="0 0 1024 1024" version="1.1" xmlns="http://www.w3.org/2000/svg" p-id="16691" width="200" height="200"><path d="M47.197 0h929.606v42.263H47.197z" p-id="16692"></path><path d="M47.197 0H89.46v1014.095H47.197V0zM934.54 0h42.263v1014.095H934.54V0zM216.213 760.571h591.574v42.264H216.213V760.57z m0-169.016h591.574v42.264H216.213v-42.264z" p-id="16693"></path><path d="M47.197 971.85h929.606v42.264H47.197V971.85z m422.54-714.1L216.213 519.708l29.603 29.603 223.92-232.43-29.565-29.565 29.566-29.585zM790.9 169.016h12.66-12.66z m-42.263 42.263L588.074 380.295l29.584 29.566 147.884-152.11v-46.472h-16.905z m-278.9 46.471l29.603 29.584-29.603 29.566 88.734 92.96 29.603-29.565L469.737 257.75z" p-id="16694"></path><path d="M469.737 257.75l-29.566 29.584 29.566 29.566 29.603-29.566-29.603-29.584z m88.734 152.11l29.603 33.811 29.566-33.81-29.585-29.566-29.584 29.566z m207.053-240.844H638.77v42.263h109.847l16.906-16.905v-25.358zM765.524 194.374l-16.906 16.905h16.906v-16.905z m0 63.376v88.734h42.263V215.487l-42.263 42.263z" p-id="16695"></path><path d="M807.787 211.28h-42.263v46.47l42.263-42.263v-4.208z m-16.905-42.264h-25.358v25.358l25.358-25.358z m16.905 0h-4.226l4.226 4.226v-4.226z" p-id="16696"></path><path d="M765.524 211.28h42.263v-38.038l-4.226-4.226h-12.68l-25.357 25.358z" p-id="16697"></path></svg>