<svg t="1588571212154" class="icon" viewBox="0 0 1084 1024" version="1.1" xmlns="http://www.w3.org/2000/svg" p-id="17548" width="200" height="200"><path d="M1075.399732 828.949409l-6.241619 24.311105-24.966476-2.059734a39.010118 39.010118 0 0 0-18.724857 2.964769 38.541997 38.541997 0 0 0-22.969157 39.821529 38.604413 38.604413 0 0 0 6.647324 17.538949l14.41814 20.722175-17.913447 17.726198a264.301353 264.301353 0 0 1-116.187736 67.191027l-24.311106 6.647324-10.704376-22.844325a38.573205 38.573205 0 0 0-11.859076-14.542972 38.479581 38.479581 0 0 0-45.938315 0 38.729245 38.729245 0 0 0-11.859076 14.542972l-10.704377 22.844325-24.311105-6.647324a264.613434 264.613434 0 0 1-116.187736-67.159819l-17.882239-17.69499 14.293308-20.690967a39.197367 39.197367 0 0 0 6.70974-17.570157 38.541997 38.541997 0 0 0-23.031574-39.915153 38.885286 38.885286 0 0 0-18.537608-2.933561l-24.966476 2.059734-6.397659-24.311105a266.329879 266.329879 0 0 1 0-134.194807l6.397659-24.342314 24.966476 2.090943a39.010118 39.010118 0 0 0 18.724857-3.12081 38.604413 38.604413 0 0 0 22.969157-39.852737 38.760453 38.760453 0 0 0-6.647324-17.538949l-14.418139-20.690967 17.913446-17.757405a264.51981 264.51981 0 0 1 116.187736-67.191028l24.311106-6.616116 10.704376 22.813117a38.885286 38.885286 0 0 0 11.859076 14.57418 38.510789 38.510789 0 0 0 45.969523 0 39.197367 39.197367 0 0 0 11.827868-14.57418l10.704377-22.813117 24.311105 6.616116a264.894307 264.894307 0 0 1 116.156529 67.191028l17.882238 17.663781-14.293308 20.722175a38.916494 38.916494 0 0 0-6.70974 17.570157 38.573205 38.573205 0 0 0 23.031574 39.915153 39.290991 39.290991 0 0 0 18.5064 2.933561l25.153724-2.090942 6.241619 24.435938a267.609411 267.609411 0 0 1 8.582226 67.066195 264.238937 264.238937 0 0 1-8.707058 67.191028z m-53.646715-98.305498a100.552481 100.552481 0 0 1-19.910764-6.085579 98.461538 98.461538 0 0 1-54.270877-122.460563 204.444228 204.444228 0 0 0-53.865171-31.208094 98.243082 98.243082 0 0 1-148.39449 0 204.007314 204.007314 0 0 0-53.865171 31.208094 98.523955 98.523955 0 0 1-54.20846 122.460563 99.460197 99.460197 0 0 1-19.973181 6.241619 207.908326 207.908326 0 0 0 0 62.416189 98.742411 98.742411 0 0 1 19.910764 6.241619 98.367914 98.367914 0 0 1 54.239669 122.460564 205.754968 205.754968 0 0 0 53.865171 31.208094 99.210533 99.210533 0 0 1 15.291966-14.262099 98.118249 98.118249 0 0 1 133.102524 14.262099 205.06839 205.06839 0 0 0 53.865171-31.208094 98.523955 98.523955 0 0 1 54.239669-122.460564 98.960868 98.960868 0 0 1 19.941972-6.241619 202.103621 202.103621 0 0 0 2.371815-31.208094 208.064367 208.064367 0 0 0-2.340607-31.364135z m-202.228453 141.123004a109.977325 109.977325 0 0 1 0-219.954651 25.153724 25.153724 0 0 1 0 50.307448 59.669877 59.669877 0 1 0 59.576253 59.669877 25.153724 25.153724 0 1 1 50.27624 0 110.039742 110.039742 0 0 1-109.852493 109.977326z m103.860539-738.445935a69.250762 69.250762 0 0 0-69.12593-69.219554H133.414604A69.250762 69.250762 0 0 0 64.288675 133.32098v687.826405a69.250762 69.250762 0 0 0 69.125929 69.188346h242.518104v63.914178H133.414604a133.196148 133.196148 0 0 1-132.977691-133.102524V133.32098A133.196148 133.196148 0 0 1 133.414604 0.187249h720.906986a133.196148 133.196148 0 0 1 132.977691 133.133731v242.73656H923.447519V133.32098zM226.85164 278.906741v-12.483237a27.556748 27.556748 0 0 1 27.494331-27.52554h303.249055a27.556748 27.556748 0 0 1 27.494332 27.52554v12.483237a27.525539 27.525539 0 0 1-27.494332 27.52554H254.345971a27.525539 27.525539 0 0 1-27.494331-27.52554z m127.453858 180.257955H253.066439a26.277216 26.277216 0 0 1-26.214799-26.246008v-14.948677a26.246008 26.246008 0 0 1 26.214799-26.214799h101.239059a26.246008 26.246008 0 0 1 26.214799 26.214799v14.948677a26.277216 26.277216 0 0 1-26.214799 26.246008z" p-id="17549"></path></svg>