<svg t="1588569483319" class="icon" viewBox="0 0 1024 1024" version="1.1" xmlns="http://www.w3.org/2000/svg" p-id="12122" width="200" height="200"><path d="M725.333 597.333z m21.334 0c59.733 8.534 106.666 64 106.666 128 0 17.067-4.266 29.867-8.533 42.667h8.533v85.333H746.667v-89.6C759.467 755.2 768 742.4 768 725.333s-8.533-29.866-21.333-38.4v-89.6z m-42.667 256c-59.733-8.533-106.667-64-106.667-128 0-17.066 4.267-29.866 8.534-42.666h-8.534v-85.334H704v89.6c-12.8 8.534-21.333 21.334-21.333 38.4S691.2 755.2 704 763.733v89.6zM853.333 614.4C832 588.8 802.133 571.733 768 563.2v-12.8l-256-256-256 256V768h302.933c8.534 34.133 25.6 64 51.2 85.333H170.667V554.667H128l384-384 384 384h-42.667V614.4z" p-id="12123"></path></svg>